inDegrees=no
num_controls=7
num_derivatives=13
num_iterations=236
num_multipliers=7
num_parameters=0
num_slacks=7
num_states=26
objective=0.508501
objective_accelerations=0.040888
objective_balance=0.003603
objective_effort=0.029899
objective_height=0.321657
objective_ligament=0.112455
solver_duration=3118.675498
status=Solve_Succeeded
success=true
DataType=double
version=3
OpenSimVersion=4.5
endheader
time	/jointset/ground_pelvis/pelvis_tilt/value	/jointset/ground_pelvis/pelvis_tx/value	/jointset/ground_pelvis/pelvis_ty/value	/jointset/hip_l/hip_flexion_l/value	/jointset/hip_l/hip_adduction_l/value	/jointset/hip_l/hip_rotation_l/value	/jointset/back/lumbar_extension/value	/jointset/patellofemoral_l/patellar_flexion_l/value	/jointset/knee_l/knee_flexion_l/value	/jointset/knee_l/knee_adduction_l/value	/jointset/knee_l/knee_rotation_l/value	/jointset/ankle_l/ankle_angle_l/value	/jointset/subtalar_l/subtalar_angle_l/value	/jointset/ground_pelvis/pelvis_tilt/speed	/jointset/ground_pelvis/pelvis_tx/speed	/jointset/ground_pelvis/pelvis_ty/speed	/jointset/hip_l/hip_flexion_l/speed	/jointset/hip_l/hip_adduction_l/speed	/jointset/hip_l/hip_rotation_l/speed	/jointset/back/lumbar_extension/speed	/jointset/patellofemoral_l/patellar_flexion_l/speed	/jointset/knee_l/knee_flexion_l/speed	/jointset/knee_l/knee_adduction_l/speed	/jointset/knee_l/knee_rotation_l/speed	/jointset/ankle_l/ankle_angle_l/speed	/jointset/subtalar_l/subtalar_angle_l/speed	/forceset/tau_hip_flexion_l	/forceset/tau_hip_adduction_l	/forceset/tau_hip_rotation_l	/forceset/tau_knee_flexion_l	/forceset/tau_ankle_angle_l	/forceset/tau_subtalar_angle_l	/forceset/tau_lumbar_extension	lambda_cid13_p0	lambda_cid13_p1	lambda_cid13_p2	lambda_cid13_p3	lambda_cid13_p4	lambda_cid13_p5	lambda_cid14_p0	/jointset/ground_pelvis/pelvis_tilt/accel	/jointset/ground_pelvis/pelvis_tx/accel	/jointset/ground_pelvis/pelvis_ty/accel	/jointset/hip_l/hip_flexion_l/accel	/jointset/hip_l/hip_adduction_l/accel	/jointset/hip_l/hip_rotation_l/accel	/jointset/back/lumbar_extension/accel	/jointset/patellofemoral_l/patellar_flexion_l/accel	/jointset/knee_l/knee_flexion_l/accel	/jointset/knee_l/knee_adduction_l/accel	/jointset/knee_l/knee_rotation_l/accel	/jointset/ankle_l/ankle_angle_l/accel	/jointset/subtalar_l/subtalar_angle_l/accel	gamma_cid13_p0	gamma_cid13_p1	gamma_cid13_p2	gamma_cid13_p3	gamma_cid13_p4	gamma_cid13_p5	gamma_cid14_p0
0.5	-0.1202029174781917	-0.05303769215710767	0.8254549814462627	0.8905832110818546	-0.3116666748142601	-0.1366144296727997	-0.7818925775891306	0.7905615763975357	0.790561576397272	-0.0773127275213782	-0.1720552863031321	0.07999402874122853	0.009541302493906492	-0.2376612834084544	-0.1701306498018338	-0.3569229371103481	1.542341231457854	-0.1104472412810865	0.5598465665353026	-0.8646278945615697	1.55737422323636	1.55737422323635	-0.01268111086619749	0.01493417776303161	0.3221568815317283	-0.01397958747336244	-0.283692199807635	0.03799953322195457	-0.007228081857318245	-0.1982279089432302	0.101619374745251	0.04072852749271045	0.3295073900858028	-11.40639424281988	-16.7415614197645	3.414495083059182	-8.599770142808453	-695.5687500359231	-65.43902302593081	-14.75928813505557	0.4218898075886175	0.6606476550713952	-0.2241516868691408	-1.13918754385431	0.4300812976113534	-0.0519322365079696	1.664880170915551	-0.561242050563458	-0.5612420505634579	-0.06800194850630474	-0.01074392260278794	0.2879836798073773	0.5461392182472455	-1.888591218193097e-07	-4.372814069392824e-07	7.603275392453276e-07	2.9688909096461e-08	-1.8850537779683e-07	-6.842241039405251e-08	-1.658219274662004e-07
0.51	-0.1225582638994876	-0.05470589826730067	0.8218754573721533	0.905946558986705	-0.3127503096032726	-0.1310195453662845	-0.79045438055572	0.8061033921390242	0.8061033921388814	-0.07744472895094015	-0.1719072552283096	0.08322840127556735	0.009427576540868978	-0.2333950579240181	-0.1635053846942039	-0.3588905100722837	1.53005546931769	-0.1062767637739036	0.5589967710572964	-0.8476023189958858	1.550637782323753	1.550637782323741	-0.01372825796685014	0.01464185686850539	0.3245957527500724	-0.008799005855995702	-0.2911053365103827	0.03873340521169332	-0.007247550882712014	-0.2003998551856822	0.1000225738607093	0.04114219704760177	0.3365461712546474	-12.19551255787354	-16.7471723365971	3.374409176513676	-8.253471469230361	-700.3396854812185	-65.28105317058424	-14.17930479979471	0.4309111180348982	0.6642503213236328	-0.1693921067204006	-1.31422583925847	0.4109259806202381	-0.1216851564332117	1.740953213513506	-0.7824835651619052	-0.7824835651621983	-0.1244849770249657	-0.04284644026167193	0.2035396130678996	0.498986534079439	-1.879419914384311e-07	-4.012484255369076e-07	7.638058759790892e-07	3.544153324916419e-08	-1.842628062458661e-07	-5.034674025171846e-08	-1.627408013769247e-07
0.52	-0.1248705636261084	-0.05630769484987427	0.8182789911672516	0.9211788582121216	-0.3137921606165437	-0.1254371954051459	-0.7988420163738292	0.82156731578068	0.8215673157806509	-0.07758748462874425	-0.1717630214159097	0.08648350267613363	0.009364650184124707	-0.229051944473028	-0.1568487442779536	-0.3603113632688217	1.516131495571091	-0.1020904861327808	0.5573396974598384	-0.8297944648654562	1.541795803269041	1.541795803269027	-0.014831960514711	0.01417472527861374	0.3263026547772154	-0.003819668214706403	-0.2985184732131248	0.03946727720143411	-0.007267019908105808	-0.2025718014281354	0.09842577297616617	0.04155586660249483	0.3435849524234968	-12.98396776796761	-16.75445354905404	3.336365668305015	-7.959136241037868	-705.1396134187047	-65.16178164197922	-13.59359112399837	0.4372674008994284	0.6669227167954576	-0.1148077337896361	-1.466829865141068	0.4332413243993092	-0.2133878603983339	1.82133588386471	-0.9823496789844709	-0.9823496789844768	-0.07931303794795598	-0.04570606167586114	0.141589841567153	0.5058904230317484	-1.872593707081352e-07	-3.545158510296759e-07	7.692162748170124e-07	4.389619173448222e-08	-1.812404190219291e-07	-2.97581114580151e-08	-1.586090159931193e-07
0.53	-0.12713923254957	-0.05784282888118935	0.8146712031792901	0.9362634957659198	-0.3147922491961489	-0.1198754494459073	-0.807047700553556	0.8369316849483754	0.8369316849484936	-0.07774195727594869	-0.1716243631036497	0.08975171336128079	0.009350206625924879	-0.2246882777631306	-0.1501789464314343	-0.3611388939508212	1.500496576082253	-0.09794790549512392	0.5548603729128825	-0.8112157195203199	1.530662370762587	1.530662370762536	-0.01611251882649842	0.01350826337028511	0.3271849330628885	0.0008601161885478575	-0.3057822780277198	0.03998884298276147	-0.007278023938269264	-0.2053022218234353	0.0971471733948952	0.04187327660856727	0.3505768250707854	-13.711282641465	-16.72556890124923	3.286769320319397	-7.571706055387026	-710.4385219723277	-65.06862058933842	-13.00328334203521	0.43493111940601	0.6668853189899396	-0.05066061008897581	-1.656762650568944	0.4016036377628248	-0.2877165085208491	1.895141593820855	-1.241157674952886	-1.241157674958298	-0.1599576198361511	-0.08425962632956231	0.03834888974577392	0.438359481164376	-1.830124264799521e-07	-3.096131623943982e-07	7.634181299494847e-07	4.865426971056666e-08	-1.718138993176926e-07	-1.165734990436357e-08	-1.530444261677504e-07
0.54	-0.1293644618432604	-0.05931128953395714	0.8110583529095716	0.9511827961928668	-0.3157515445285147	-0.1143429990834728	-0.8150637977330351	0.8521722562633175	0.852172256263571	-0.07791074158467863	-0.1714937980846569	0.09302410724282037	0.00938042831819598	-0.2203640185183856	-0.1435140685684963	-0.3613238196201939	1.483064070200867	-0.09393183668490819	0.5514805780988598	-0.7918770648158746	1.517036232717053	1.517036232716966	-0.01769429281996576	0.01255606662522841	0.3271392940556969	0.005113381879487101	-0.3130460828423092	0.04051040876409095	-0.007289027968431053	-0.2080326422187366	0.09586857381362278	0.04219068661464152	0.3575686977180789	-14.43915915811471	-16.69825059820015	3.239325143089955	-7.230406964516128	-715.781080789615	-65.01432445328925	-12.40984400011118	0.4293859078689652	0.6659387200791678	0.01371326873568489	-1.826347143650657	0.4079389589110789	-0.3934819138116953	1.973317755726546	-1.480890786800524	-1.480890786800477	-0.1395561742839488	-0.1028530290214648	-0.04399361700579375	0.4205866805687378	-1.748219754030427e-07	-2.667350283408571e-07	7.452190431099687e-07	4.932251393175433e-08	-1.553019564437629e-07	3.690877681571e-09	-1.458946058963966e-07
0.55	-0.1315466338549587	-0.06071320443138219	0.8074468670051356	0.96591906632296	-0.3166712980520106	-0.1088486473674638	-0.8228828766056934	0.8672645125964431	0.867264512596671	-0.07809665935875271	-0.1713740415487445	0.09629159293847536	0.009451122212675288	-0.2160731746875323	-0.1368772659735841	-0.3608648694675564	1.46390726820125	-0.09004524802329519	0.5472503427381524	-0.7718318957914905	1.501030021460204	1.501030021460227	-0.01953108930807709	0.01134974150220406	0.326215992967684	0.008952122211858251	-0.3201561317719547	0.041043157734204	-0.007280283327361212	-0.2106643598835514	0.09431545912591124	0.04236610368894721	0.3643409542627425	-15.25603045259003	-16.59238609670058	3.177876871224487	-6.730782914562393	-720.9960881923774	-64.83169356458124	-11.81491249153803	0.4284961364025227	0.6613077080110964	0.07823039935821081	-2.002772376826089	0.3749932468183173	-0.4588349074341068	2.036138564479594	-1.718209763431009	-1.718209763414436	-0.2120415755036174	-0.1361978126390744	-0.1377882134373506	0.3544799880776874	-1.629350507067314e-07	-2.214832175951777e-07	7.135235997861714e-07	4.766478365183039e-08	-1.350607771282488e-07	1.717812102233338e-08	-1.363256586074222e-07
